<svg width="22" height="28" viewBox="0 0 22 28" fill="none" xmlns="http://www.w3.org/2000/svg">
<path d="M11 12.6666C12.1045 12.6666 13 11.7712 13 10.6666C13 9.56206 12.1045 8.66663 11 8.66663C9.8954 8.66663 8.99997 9.56206 8.99997 10.6666C8.99997 11.7712 9.8954 12.6666 11 12.6666Z" fill="white"/>
<path d="M11 0.666687C8.18939 0.666546 5.49232 1.7757 3.49497 3.75307C1.49762 5.73045 0.361419 8.41623 0.333313 11.2267C0.333313 18.5334 9.73331 26.6667 10.1333 27.0133C10.3748 27.2199 10.6822 27.3334 11 27.3334C11.3178 27.3334 11.6251 27.2199 11.8666 27.0133C12.3333 26.6667 21.6666 18.5334 21.6666 11.2267C21.6385 8.41623 20.5023 5.73045 18.505 3.75307C16.5076 1.7757 13.8106 0.666546 11 0.666687ZM11 15.3334C10.077 15.3334 9.17475 15.0597 8.40732 14.5469C7.63989 14.0341 7.04175 13.3053 6.68854 12.4525C6.33533 11.5998 6.24292 10.6615 6.42298 9.75626C6.60305 8.85102 7.0475 8.0195 7.70015 7.36685C8.35279 6.71421 9.18431 6.26975 10.0896 6.08969C10.9948 5.90962 11.9331 6.00204 12.7858 6.35525C13.6386 6.70846 14.3674 7.3066 14.8802 8.07403C15.393 8.84145 15.6666 9.74371 15.6666 10.6667C15.6666 11.9044 15.175 13.0913 14.2998 13.9665C13.4246 14.8417 12.2377 15.3334 11 15.3334Z" fill="white"/>
</svg>
