<svg width="19" height="19" viewBox="0 0 19 19" fill="none" xmlns="http://www.w3.org/2000/svg">
<path d="M18.4479 16.9688L14.9063 13.4375C16.0489 11.9817 16.669 10.184 16.6667 8.33334C16.6667 6.68516 16.1779 5.074 15.2623 3.70359C14.3466 2.33318 13.0451 1.26507 11.5224 0.634341C9.99965 0.00361068 8.32409 -0.161417 6.70759 0.160126C5.09108 0.48167 3.60622 1.27534 2.44078 2.44078C1.27534 3.60622 0.48167 5.09108 0.160126 6.70759C-0.161417 8.32409 0.00361068 9.99965 0.634341 11.5224C1.26507 13.0451 2.33318 14.3466 3.70359 15.2623C5.074 16.1779 6.68516 16.6667 8.33334 16.6667C10.184 16.669 11.9817 16.0489 13.4375 14.9063L16.9688 18.4479C17.0656 18.5456 17.1808 18.6231 17.3077 18.6759C17.4347 18.7288 17.5708 18.756 17.7083 18.756C17.8459 18.756 17.982 18.7288 18.1089 18.6759C18.2359 18.6231 18.3511 18.5456 18.4479 18.4479C18.5456 18.3511 18.6231 18.2359 18.6759 18.1089C18.7288 17.982 18.756 17.8459 18.756 17.7083C18.756 17.5708 18.7288 17.4347 18.6759 17.3077C18.6231 17.1808 18.5456 17.0656 18.4479 16.9688V16.9688ZM2.08334 8.33334C2.08334 7.0972 2.44989 5.88883 3.13665 4.86102C3.82341 3.83322 4.79953 3.03214 5.94157 2.55909C7.0836 2.08604 8.34027 1.96227 9.55265 2.20343C10.765 2.44459 11.8787 3.03984 12.7528 3.91392C13.6268 4.788 14.2221 5.90164 14.4632 7.11402C14.7044 8.3264 14.5806 9.58307 14.1076 10.7251C13.6345 11.8671 12.8335 12.8433 11.8057 13.53C10.7778 14.2168 9.56947 14.5833 8.33334 14.5833C6.67573 14.5833 5.08602 13.9249 3.91392 12.7528C2.74182 11.5807 2.08334 9.99094 2.08334 8.33334Z" fill="#03045E"/>
</svg>
